<svg width="16" height="15" viewBox="0 0 16 15" fill="none" xmlns="http://www.w3.org/2000/svg">
<path d="M8 1.375C10.1333 1.375 10.4 1.375 11.2667 1.4375C13.4667 1.5 14.4667 2.5 14.5333 4.5C14.6 5.3125 14.6 5.5 14.6 7.5C14.6 9.5 14.6 9.75 14.5333 10.5C14.4667 12.5 13.4 13.5 11.2667 13.5625C10.4 13.625 10.2 13.625 8 13.625C5.86667 13.625 5.6 13.625 4.8 13.5625C2.6 13.5 1.6 12.5 1.53333 10.5C1.46667 9.6875 1.46667 9.5 1.46667 7.5C1.46667 5.5 1.46667 5.25 1.53333 4.5C1.6 2.5 2.66667 1.5 4.8 1.4375C5.6 1.375 5.86667 1.375 8 1.375ZM8 0C5.8 0 5.53333 0 4.73333 0.0625C1.8 0.1875 0.2 1.6875 0.0666667 4.4375C0 5.1875 0 5.4375 0 7.5C0 9.5625 0 9.8125 0.0666667 10.5625C0.2 13.3125 1.8 14.8125 4.73333 14.9375C5.53333 15 5.8 15 8 15C10.2 15 10.4667 15 11.2667 14.9375C14.2 14.8125 15.8 13.3125 15.9333 10.5625C16 9.8125 16 9.5625 16 7.5C16 5.4375 16 5.1875 15.9333 4.4375C15.8 1.6875 14.2 0.1875 11.2667 0.0625C10.4667 0 10.2 0 8 0ZM8 3.625C5.73333 3.625 3.86667 5.375 3.86667 7.5C3.86667 9.625 5.73333 11.375 8 11.375C10.2667 11.375 12.1333 9.625 12.1333 7.5C12.1333 5.375 10.2667 3.625 8 3.625ZM8 10C6.53333 10 5.33333 8.875 5.33333 7.5C5.33333 6.125 6.53333 5 8 5C9.46667 5 10.6667 6.125 10.6667 7.5C10.6667 8.875 9.46667 10 8 10ZM12.2667 2.625C11.7333 2.625 11.3333 3 11.3333 3.5C11.3333 4 11.7333 4.375 12.2667 4.375C12.8 4.375 13.2 4 13.2 3.5C13.2 3 12.8 2.625 12.2667 2.625Z" fill="white"/>
</svg>
