<svg width="26" height="28" viewBox="0 0 26 28" fill="none" xmlns="http://www.w3.org/2000/svg">
<g clip-path="url(#clip0_101_503)">
<path d="M19.1763 18.2793C22.473 16.458 24.9722 15.0701 25.1876 14.9622C25.8767 14.5935 26.5883 13.6176 25.1876 12.8596C24.7353 12.6212 22.3004 11.2765 19.1763 9.54248L14.8455 13.9433L19.1763 18.2792V18.2793Z" fill="#FFD900"/>
<path d="M14.8455 13.9431L1.05565 27.9271C1.37933 27.9702 1.74476 27.8838 2.17558 27.6455C3.0801 27.1474 12.6688 21.8786 19.1763 18.2802L14.8455 13.9431Z" fill="#F43249"/>
<path d="M14.8455 13.9432L19.1763 9.56403C19.1763 9.56403 3.1455 0.761301 2.17558 0.241665C1.81016 0.023899 1.40066 -0.0407871 1.03422 0.023899L14.8455 13.9432V13.9432Z" fill="#00EE76"/>
<path d="M14.8455 13.9432L1.03421 0.0239258C0.473687 0.15432 0 0.652597 0 1.67163V26.2794C0 27.2121 0.366539 27.8839 1.05564 27.9487L14.8455 13.9432Z" fill="#00D3FF"/>
</g>
<defs>
<clipPath id="clip0_101_503">
<rect width="26" height="28" fill="white"/>
</clipPath>
</defs>
</svg>
