<svg width="27" height="31" viewBox="0 0 27 31" fill="none" xmlns="http://www.w3.org/2000/svg">
<path d="M22.0057 16.3563C21.9912 13.8921 23.1077 12.0349 25.3624 10.6654C24.1014 8.85879 22.1936 7.86513 19.6787 7.67363C17.2976 7.48574 14.6924 9.06113 13.7385 9.06113C12.7304 9.06113 10.4251 7.73867 8.61123 7.73867C4.86787 7.79648 0.889648 10.7232 0.889648 16.6779C0.889648 18.4376 1.21123 20.2551 1.85439 22.1268C2.71436 24.591 5.81455 30.6288 9.04844 30.5312C10.7395 30.4915 11.9354 29.3316 14.1359 29.3316C16.2714 29.3316 17.3771 30.5312 19.2632 30.5312C22.526 30.4843 25.3299 24.9957 26.1465 22.5242C21.7708 20.461 22.0057 16.4828 22.0057 16.3563V16.3563ZM18.2081 5.33584C20.04 3.16064 19.8738 1.18057 19.8196 0.46875C18.2009 0.562695 16.3292 1.5708 15.2633 2.81016C14.089 4.13984 13.3988 5.78389 13.547 7.6375C15.2958 7.77119 16.8929 6.87148 18.2081 5.33584V5.33584Z" fill="white"/>
</svg>
