<svg width="17" height="15" viewBox="0 0 17 15" fill="none" xmlns="http://www.w3.org/2000/svg">
<path d="M16.7471 2.49695C16.1557 2.75904 15.5203 2.93612 14.8523 3.01616C15.5415 2.60377 16.0572 1.9547 16.303 1.19008C15.6555 1.5747 14.9468 1.84543 14.2078 1.9905C13.7108 1.45986 13.0525 1.10814 12.3352 0.989956C11.6178 0.871769 10.8815 0.993723 10.2405 1.33688C9.59961 1.68004 9.08989 2.22521 8.79053 2.88774C8.49117 3.55028 8.41893 4.29311 8.585 5.00091C7.27295 4.93503 5.98941 4.59401 4.81768 3.99997C3.64595 3.40593 2.61222 2.57215 1.78359 1.55275C1.50025 2.0415 1.33734 2.60816 1.33734 3.21166C1.33702 3.75495 1.47081 4.28992 1.72683 4.7691C1.98286 5.24828 2.3532 5.65686 2.805 5.95858C2.28103 5.94191 1.76862 5.80033 1.31042 5.54562V5.58812C1.31037 6.3501 1.57394 7.08864 2.05642 7.67841C2.53891 8.26818 3.21058 8.67286 3.95746 8.82379C3.47139 8.95534 2.96178 8.97471 2.46713 8.88045C2.67786 9.5361 3.08833 10.1094 3.6411 10.5202C4.19386 10.931 4.86124 11.1586 5.5498 11.1712C4.38093 12.0888 2.93738 12.5865 1.45138 12.5843C1.18815 12.5844 0.925141 12.569 0.663712 12.5383C2.17209 13.5081 3.92795 14.0228 5.72121 14.0208C11.7916 14.0208 15.1102 8.99308 15.1102 4.63258C15.1102 4.49091 15.1066 4.34783 15.1003 4.20616C15.7458 3.73935 16.3029 3.1613 16.7457 2.49908L16.7471 2.49695V2.49695Z" fill="white"/>
</svg>
